<?xml version="1.0" encoding="UTF-8" standalone="no"?>
<svg width="24" height="24" viewBox="0 0 24 24" fill="current" xmlns="http://www.w3.org/2000/svg">
    <path d="M3.935 18C3.68701 17.9995 3.44935 17.9007 3.27409 17.7252C3.09883 17.5498 3.00026 17.312 3 17.064V16.936C3.00026 16.688 3.09883 16.4502 3.27409 16.2748C3.44935 16.0993 3.68701 16.0005 3.935 16H20.065C20.313 16.0008 20.5506 16.0997 20.726 16.275C20.9013 16.4504 21.0002 16.688 21.001 16.936V17.064C21.0005 17.3121 20.9017 17.5498 20.7263 17.7253C20.5508 17.9007 20.3131 17.9995 20.065 18H3.935ZM7.935 13C7.68709 12.9992 7.44958 12.9003 7.27438 12.7249C7.09917 12.5495 7.00053 12.3119 7 12.064V11.936C7.00026 11.6878 7.09896 11.4499 7.27444 11.2744C7.44992 11.099 7.68784 11.0003 7.936 11H20.065C20.3129 11.0008 20.5504 11.0997 20.7256 11.2751C20.9008 11.4505 20.9995 11.6881 21 11.936V12.064C20.9992 12.3118 20.9005 12.5493 20.7253 12.7246C20.5502 12.9 20.3128 12.9989 20.065 13H7.935ZM3 12C3 11.8022 3.05865 11.6089 3.16853 11.4444C3.27841 11.28 3.43459 11.1518 3.61732 11.0761C3.80004 11.0004 4.00111 10.9806 4.19509 11.0192C4.38907 11.0578 4.56725 11.153 4.70711 11.2929C4.84696 11.4327 4.9422 11.6109 4.98079 11.8049C5.01937 11.9989 4.99957 12.2 4.92388 12.3827C4.84819 12.5654 4.72002 12.7216 4.55557 12.8315C4.39112 12.9414 4.19778 13 4 13C3.73478 13 3.48043 12.8946 3.29289 12.7071C3.10536 12.5196 3 12.2652 3 12ZM3.935 8C3.68701 7.99947 3.44935 7.90066 3.27409 7.72521C3.09883 7.54976 3.00026 7.31199 3 7.064V6.936C3.00026 6.68801 3.09883 6.45024 3.27409 6.27479C3.44935 6.09934 3.68701 6.00053 3.935 6H20.065C20.3128 6.00105 20.5502 6.10004 20.7253 6.27537C20.9005 6.45071 20.9992 6.68817 21 6.936V7.064C20.9992 7.31183 20.9005 7.54929 20.7253 7.72463C20.5502 7.89996 20.3128 7.99895 20.065 8H3.935Z"/>
</svg>
